<svg width="46" height="43" viewBox="0 0 46 43" fill="none" xmlns="http://www.w3.org/2000/svg">
<path d="M31.4676 5.99512C29.3588 3.08636 26.2723 1.25 22.834 1.25C19.3957 1.25 16.3091 3.08636 14.2004 5.99512M27.1508 10.7402C26.0953 9.28586 24.5542 8.36768 22.834 8.36768C21.1137 8.36768 19.5726 9.28586 18.5172 10.7402M33.626 41.5835C37.6622 41.5835 39.6781 41.5835 41.1804 40.6297C42.1646 40.005 42.982 39.1066 43.5503 38.0247C44.418 36.3734 44.418 34.1574 44.418 29.7207C44.418 25.284 44.418 23.068 43.5503 21.4167C42.982 20.3348 42.1646 19.4364 41.1804 18.8117C39.6781 17.8579 37.6622 17.8579 33.626 17.8579H12.042C8.00579 17.8579 5.98984 17.8579 4.4876 18.8117C3.50332 19.4364 2.68597 20.3348 2.11768 21.4167C1.25 23.068 1.25 25.284 1.25 29.7207C1.25 34.1574 1.25 36.3734 2.11768 38.0247C2.68597 39.1066 3.50332 40.005 4.4876 40.6297C5.98984 41.5835 8.00579 41.5835 12.042 41.5835H33.626Z" stroke="#4F2C8C" stroke-width="2.5" stroke-linecap="round" stroke-linejoin="round"/>
<path d="M7.72656 24.9756V34.4658H10.9642M37.9441 34.4658H33.6273V29.7207M33.6273 29.7207V24.9756H37.9441M33.6273 29.7207H36.8649M16.3602 24.9756V34.4658M21.7562 24.9756L24.9937 34.4658L28.2313 24.9756" stroke="#4F2C8C" stroke-width="2.5" stroke-linecap="round" stroke-linejoin="round"/>
</svg>
