<svg width="81" height="65" viewBox="0 0 81 65" fill="none" xmlns="http://www.w3.org/2000/svg">
<path d="M0.263797 61.605C0.0892684 61.9122 -0.00167926 62.2597 2.34768e-05 62.613C0.00172621 62.9663 0.0960201 63.313 0.273501 63.6185C0.450983 63.924 0.705449 64.1776 1.01152 64.354C1.3176 64.5305 1.66458 64.6236 2.01788 64.6241H70.8555C71.2088 64.6236 71.5558 64.5305 71.8619 64.354C72.168 64.1776 72.4224 63.924 72.5999 63.6185C72.7774 63.313 72.8717 62.9663 72.8734 62.613C72.8751 62.2597 72.7842 61.9122 72.6096 61.605L63.435 45.4585C59.7601 45.8685 56.0512 45.0788 52.862 43.2073L60.4361 56.5448H12.4373L36.4367 14.2973L44.4796 28.4512C44.4958 24.5995 45.7891 21.055 47.9555 18.2096L38.1948 1.02446C38.0186 0.713456 37.763 0.454774 37.4541 0.2748C37.1453 0.0948256 36.7942 0 36.4367 0C36.0792 0 35.7282 0.0948256 35.4193 0.2748C35.1104 0.454774 34.8548 0.713456 34.6786 1.02446L0.263797 61.605Z" fill="white"/>
<path fill-rule="evenodd" clip-rule="evenodd" d="M50.1928 22.1462C51.8591 19.1282 54.656 16.8958 57.9683 15.94C61.2806 14.9842 64.8369 15.3834 67.8549 17.0497C70.8729 18.716 73.1053 21.5129 74.0611 24.8252C75.0169 28.1375 74.6177 31.6938 72.9514 34.7118L80.8529 42.6132L75.5987 47.8674L67.7013 39.9659C65.7075 41.0457 63.4649 41.5823 61.1982 41.522C57.806 41.4448 54.579 40.0417 52.2089 37.6135C49.8389 35.1853 48.5144 31.9252 48.5195 28.532M61.5175 34.1015C62.9946 34.1015 64.4113 33.5147 65.4557 32.4702C66.5002 31.4257 67.087 30.0091 67.087 28.532C67.087 27.0549 66.5002 25.6383 65.4557 24.5939C64.4113 23.5494 62.9946 22.9626 61.5175 22.9626C60.0404 22.9626 58.6238 23.5494 57.5794 24.5939C56.5349 25.6383 55.9481 27.0549 55.9481 28.532C55.9481 30.0091 56.5349 31.4257 57.5794 32.4702C58.6238 33.5147 60.0404 34.1015 61.5175 34.1015Z" fill="white"/>
<path d="M48.5195 28.532C48.5155 26.2945 49.092 24.0942 50.1928 22.1462L48.5195 28.532ZM33.3633 52.4991V46.4366H39.4258V52.4991H33.3633ZM36.3945 28.2491C35.5906 28.2491 34.8196 28.5685 34.2511 29.137C33.6826 29.7054 33.3633 30.4764 33.3633 31.2804V41.3845C33.3633 42.1885 33.6826 42.9595 34.2511 43.528C34.8196 44.0964 35.5906 44.4158 36.3945 44.4158C37.1985 44.4158 37.9695 44.0964 38.5379 43.528C39.1064 42.9595 39.4258 42.1885 39.4258 41.3845V31.2804C39.4258 30.4764 39.1064 29.7054 38.5379 29.137C37.9695 28.5685 37.1985 28.2491 36.3945 28.2491Z" fill="white"/>
</svg>
