<svg width="43" height="43" viewBox="0 0 43 43" fill="none" xmlns="http://www.w3.org/2000/svg">
<g clip-path="url(#clip0_5451_2356)">
<path d="M41 10.75C42.1046 10.75 43 11.6454 43 12.75V41C43 42.1046 42.1046 43 41 43H2C0.895431 43 0 42.1046 0 41V12.75C0 11.6454 0.89543 10.75 2 10.75H10.1801C10.5384 10.75 10.8143 10.4358 10.792 10.0781C10.778 9.85417 10.764 9.63021 10.75 9.40625C10.75 8.10449 10.995 6.88672 11.4849 5.75293C11.9748 4.61914 12.6466 3.61833 13.5005 2.75049C14.3543 1.88265 15.3481 1.21077 16.4819 0.734863C17.6157 0.258952 18.8405 0.0139974 20.1562 0C21.458 0 22.6758 0.244954 23.8096 0.734863C24.9434 1.22477 25.9442 1.89665 26.812 2.75049C27.6798 3.60433 28.3517 4.59814 28.8276 5.73193C29.3035 6.86572 29.5485 8.09049 29.5625 9.40625C29.5625 9.63021 29.5555 9.85417 29.5415 10.0781C29.5195 10.4295 29.783 10.75 30.135 10.75H41ZM20.1562 2.6875C19.2324 2.6875 18.3646 2.86247 17.5527 3.2124C16.7409 3.56234 16.027 4.04525 15.4111 4.66113C14.7952 5.27702 14.3123 5.99089 13.9624 6.80273C13.6125 7.61458 13.4375 8.48242 13.4375 9.40625C13.4375 10.3301 13.6125 11.1979 13.9624 12.0098C14.3123 12.8216 14.7882 13.5355 15.3901 14.1514C15.992 14.7673 16.7059 15.2502 17.5317 15.6001C18.3576 15.95 19.2324 16.125 20.1562 16.125C21.0801 16.125 21.9479 15.95 22.7598 15.6001C23.5716 15.2502 24.2785 14.7743 24.8804 14.1724C25.4823 13.5705 25.9652 12.8566 26.3291 12.0308C26.693 11.2049 26.875 10.3301 26.875 9.40625C26.875 8.48242 26.7 7.61458 26.3501 6.80273C26.0002 5.99089 25.5173 5.28402 24.9014 4.68213C24.2855 4.08024 23.5716 3.59733 22.7598 3.2334C21.9479 2.86947 21.0801 2.6875 20.1562 2.6875ZM40.3125 15.4375C40.3125 14.3329 39.4171 13.4375 38.3125 13.4375H29.9173C29.1485 13.4375 28.4624 13.8882 28.0452 14.5338C27.8355 14.8585 27.6063 15.172 27.3579 15.4741C26.712 16.2596 26.871 17.624 27.7498 18.1357C28.3569 18.4892 28.9331 18.8827 29.4785 19.3164C30.6403 20.2402 31.6201 21.304 32.418 22.5078C33.2158 23.7116 33.8387 25.0273 34.2866 26.4551C34.7345 27.8828 34.9515 29.3665 34.9375 30.9062C34.9375 31.6484 34.3359 32.25 33.5937 32.25C32.8516 32.25 32.25 31.6484 32.25 30.9062C32.25 29.1846 31.9421 27.5889 31.3262 26.1191C30.7103 24.6494 29.8634 23.3687 28.7856 22.2769C27.7078 21.1851 26.4341 20.3382 24.9644 19.7363C23.4946 19.1344 21.8919 18.8265 20.1562 18.8125C18.6025 18.8125 17.1328 19.0784 15.7471 19.6104C14.3613 20.1423 13.1296 20.8911 12.0518 21.8569C10.974 22.8228 10.0921 23.9565 9.40625 25.2583C9.05217 25.9303 8.7671 26.6378 8.55105 27.3807C8.21905 28.5223 9.16233 29.5625 10.3512 29.5625H16.9097C18.6889 29.5625 19.5799 27.4114 18.3218 26.1533L17.8572 25.6887C17.3304 25.162 17.3328 24.3072 17.8625 23.7834C18.388 23.2636 19.2347 23.2659 19.7573 23.7886L25.4608 29.492C26.2418 30.2731 26.2418 31.5394 25.4608 32.3205L19.7573 38.0239C19.2347 38.5466 18.388 38.5489 17.8625 38.0291C17.3328 37.5053 17.3304 36.6505 17.8572 36.1238L18.3218 35.6592C19.5799 34.4011 18.6889 32.25 16.9097 32.25H6.71875C5.97662 32.25 5.375 31.6484 5.375 30.9062C5.375 29.3665 5.59196 27.8898 6.02588 26.4761C6.4598 25.0623 7.08968 23.7536 7.91553 22.5498C8.74137 21.346 9.72819 20.2822 10.876 19.3584C11.1042 19.1747 11.3383 18.9979 11.5782 18.828C12.8499 17.9274 13.0996 15.8336 12.2551 14.524C11.8436 13.886 11.1684 13.4375 10.4092 13.4375H4.6875C3.58293 13.4375 2.6875 14.3329 2.6875 15.4375V38.3125C2.6875 39.4171 3.58293 40.3125 4.6875 40.3125H38.3125C39.4171 40.3125 40.3125 39.4171 40.3125 38.3125V15.4375Z" fill="#4F2C8C"/>
</g>
<defs>
<clipPath id="clip0_5451_2356">
<rect width="43" height="43" fill="white"/>
</clipPath>
</defs>
</svg>
