<svg width="88" height="88" viewBox="0 0 88 88" fill="none" xmlns="http://www.w3.org/2000/svg">
<path d="M84.3316 39.375C84.3316 42.4871 84.275 45.5305 84.1699 48.4688C83.8344 58.0596 83.6647 62.8571 79.7645 66.7896C75.8643 70.7181 70.9294 70.9283 61.0677 71.3527C58.0985 71.4793 55.0335 71.5736 51.8729 71.6356C48.8821 71.6922 47.3826 71.7164 46.0651 72.2216C44.7475 72.7268 43.6401 73.6685 41.4252 75.5681L32.6184 83.126C32.1898 83.4933 31.6648 83.73 31.1058 83.8078C30.5467 83.8857 29.9771 83.8016 29.4644 83.5655C28.9517 83.3293 28.5175 82.9511 28.2133 82.4756C27.9091 82.0001 27.7477 81.4474 27.7482 80.8829V71.3931L26.7621 71.3527C16.9004 70.9283 11.9696 70.7181 8.06532 66.7856C4.16511 62.8571 3.99536 58.0596 3.6599 48.4688C3.4467 42.4081 3.4467 36.3419 3.6599 30.2813C3.99536 20.6904 4.16511 15.8929 8.06532 11.9604C11.9655 8.03188 16.9004 7.82172 26.7621 7.39734C32.4765 7.15743 38.1954 7.03885 43.9149 7.04168" stroke="white" stroke-width="7" stroke-linecap="round" stroke-linejoin="round"/>
<path d="M43.9355 39.375H43.9679M27.7891 39.375H27.8254" stroke="white" stroke-width="7" stroke-linecap="round" stroke-linejoin="round"/>
<path d="M70.1849 17.1458L73.7214 13.6094M84.3307 17.1458C84.3307 20.8975 82.8404 24.4956 80.1875 27.1484C77.5347 29.8013 73.9366 31.2917 70.1849 31.2917C66.4332 31.2917 62.8351 29.8013 60.1823 27.1484C57.5294 24.4956 56.0391 20.8975 56.0391 17.1458C56.0391 13.3941 57.5294 9.79608 60.1823 7.14322C62.8351 4.49036 66.4332 3 70.1849 3C73.9366 3 77.5347 4.49036 80.1875 7.14322C82.8404 9.79608 84.3307 13.3941 84.3307 17.1458Z" stroke="white" stroke-width="6" stroke-linecap="round"/>
</svg>
