<svg width="44" height="38" viewBox="0 0 44 38" fill="none" xmlns="http://www.w3.org/2000/svg">
<path d="M5.19531 16.2812L7.03894 8.90944C7.18452 8.32827 7.52013 7.81242 7.99244 7.44382C8.46476 7.07522 9.04669 6.87502 9.64581 6.875H39.0417C39.4502 6.87501 39.8533 6.96815 40.2205 7.14734C40.5876 7.32653 40.909 7.58706 41.1603 7.90911C41.4117 8.23117 41.5863 8.60629 41.6709 9.00595C41.7555 9.40561 41.7478 9.81929 41.6486 10.2156L40.802 13.6018M16.2812 31.0625H5.542C5.0117 31.0639 4.48634 30.9607 3.99601 30.7587C3.50567 30.5568 3.06 30.2601 2.68452 29.8856C2.30905 29.5111 2.01115 29.0662 1.80789 28.5764C1.60462 28.0866 1.5 27.5615 1.5 27.0312V4.1875C1.5 3.47473 1.78315 2.79115 2.28715 2.28715C2.79115 1.78315 3.47473 1.5 4.1875 1.5H17.625C18.3378 1.5 19.0213 1.78315 19.5253 2.28715C20.0294 2.79115 20.3125 3.47473 20.3125 4.1875V6.875" stroke="#4F2C8C" stroke-width="3" stroke-linecap="round" stroke-linejoin="round"/>
<path d="M25.6875 25.6875H28.375C29.0878 25.6875 29.7713 25.4044 30.2753 24.9003C30.7794 24.3963 31.0625 23.7128 31.0625 23V20.3125C31.0625 19.5997 30.7794 18.9162 30.2753 18.4122C29.7713 17.9081 29.0878 17.625 28.375 17.625H25.6875C24.9747 17.625 24.2912 17.9081 23.7872 18.4122C23.2831 18.9162 23 19.5997 23 20.3125V23C23 23.7128 23.2831 24.3963 23.7872 24.9003C24.2912 25.4044 24.9747 25.6875 25.6875 25.6875ZM25.6875 25.6875V33.75H33.75M33.75 33.75C33.75 34.4628 34.0331 35.1463 34.5372 35.6503C35.0412 36.1544 35.7247 36.4375 36.4375 36.4375H39.125C39.8378 36.4375 40.5213 36.1544 41.0253 35.6503C41.5294 35.1463 41.8125 34.4628 41.8125 33.75V31.0625C41.8125 30.3497 41.5294 29.6662 41.0253 29.1622C40.5213 28.6581 39.8378 28.375 39.125 28.375H36.4375C35.7247 28.375 35.0412 28.6581 34.5372 29.1622C34.0331 29.6662 33.75 30.3497 33.75 31.0625V33.75Z" stroke="#4F2C8C" stroke-width="3" stroke-linecap="round" stroke-linejoin="round"/>
</svg>
