<svg width="81" height="81" viewBox="0 0 81 81" fill="none" xmlns="http://www.w3.org/2000/svg">
<path d="M22.0271 42.8417L36.476 32.3333L22.0271 21.825L18.3896 26.675L26.1698 32.3333L18.3896 37.9917L22.0271 42.8417ZM58.8063 42.8417L62.4438 37.9917L54.6635 32.3333L62.4438 26.675L58.8063 21.825L44.3573 32.3333L58.8063 42.8417ZM34.3542 60.8271L40.4167 54.7646L46.4792 60.8271L52.5417 54.7646L56.4823 58.7052L60.726 54.4615L52.5417 46.2771L46.4792 52.3396L40.4167 46.2771L34.3542 52.3396L28.2917 46.2771L20.1073 54.4615L24.351 58.7052L28.2917 54.7646L34.3542 60.8271ZM40.4167 80.8333C34.8257 80.8333 29.5715 79.7717 24.6542 77.6485C19.7368 75.5253 15.4594 72.6463 11.8219 69.0115C8.18438 65.3767 5.30537 61.0992 3.18484 56.1792C1.06431 51.2591 0.00269956 46.0049 5.11603e-06 40.4167C-0.00268933 34.8284 1.05892 29.5742 3.18484 24.6542C5.31076 19.7341 8.18977 15.4567 11.8219 11.8219C15.454 8.18707 19.7314 5.30806 24.6542 3.18483C29.5769 1.06161 34.8311 0 40.4167 0C46.0023 0 51.2564 1.06161 56.1792 3.18483C61.1019 5.30806 65.3794 8.18707 69.0115 11.8219C72.6436 15.4567 75.5239 19.7341 77.6526 24.6542C79.7812 29.5742 80.8414 34.8284 80.8333 40.4167C80.8253 46.0049 79.7637 51.2591 77.6485 56.1792C75.5334 61.0992 72.6544 65.3767 69.0115 69.0115C65.3686 72.6463 61.0911 75.5266 56.1792 77.6525C51.2672 79.7785 46.013 80.8387 40.4167 80.8333ZM40.4167 72.75C49.4431 72.75 57.0885 69.6177 63.3531 63.3531C69.6177 57.0885 72.75 49.4431 72.75 40.4167C72.75 31.3903 69.6177 23.7448 63.3531 17.4802C57.0885 11.2156 49.4431 8.08333 40.4167 8.08333C31.3903 8.08333 23.7448 11.2156 17.4802 17.4802C11.2156 23.7448 8.08334 31.3903 8.08334 40.4167C8.08334 49.4431 11.2156 57.0885 17.4802 63.3531C23.7448 69.6177 31.3903 72.75 40.4167 72.75Z" fill="white"/>
</svg>
